<svg width="50" height="50" viewBox="0 0 50 50" fill="none" xmlns="http://www.w3.org/2000/svg">
<path d="M25.045 0.1875C11.2653 0.1875 0.0913086 11.5499 0.0913086 25.5672C0.0913086 36.7809 7.24131 46.2944 17.1562 49.6504C18.4033 49.8853 18.8611 49.0998 18.8611 48.4295C18.8611 47.8243 18.838 45.825 18.8273 43.7042C11.8851 45.2395 10.4202 40.7097 10.4202 40.7097C9.28511 37.7761 7.64957 36.996 7.64957 36.996C5.38552 35.4208 7.82023 35.4532 7.82023 35.4532C10.326 35.6318 11.6454 38.0686 11.6454 38.0686C13.8711 41.9487 17.483 40.8269 18.907 40.1784C19.131 38.5385 19.7777 37.418 20.4913 36.7846C14.9487 36.1429 9.1223 33.9666 9.1223 24.2417C9.1223 21.4707 10.0971 19.2066 11.6934 17.4293C11.4343 16.7896 10.5802 14.2086 11.9351 10.7127C11.9351 10.7127 14.0306 10.0306 18.7992 13.3143C20.7897 12.7519 22.9244 12.4699 25.045 12.4602C27.1657 12.4699 29.3021 12.7519 31.2963 13.3143C36.0591 10.0306 38.1516 10.7127 38.1516 10.7127C39.5099 14.2086 38.6554 16.7896 38.3963 17.4293C39.9963 19.2066 40.9645 21.4707 40.9645 24.2417C40.9645 33.9897 35.1268 36.1361 29.5702 36.7645C30.4653 37.5521 31.2628 39.0966 31.2628 41.4645C31.2628 44.86 31.2339 47.5931 31.2339 48.4295C31.2339 49.1049 31.683 49.8963 32.9479 49.647C42.8574 46.2873 49.9983 36.7771 49.9983 25.5672C49.9983 11.5499 38.826 0.1875 25.045 0.1875Z" fill="#c7cefc"/>
<path d="M9.54256 36.6274C9.4876 36.7539 9.29256 36.7913 9.11487 36.7048C8.93388 36.622 8.83223 36.4501 8.89091 36.3236C8.94463 36.1937 9.14008 36.158 9.32066 36.2441C9.50206 36.3273 9.60537 36.5009 9.54256 36.6274Z" fill="#c7cefc"/>
<path d="M10.5533 37.7741C10.4343 37.8863 10.2016 37.8342 10.0438 37.6568C9.88056 37.4799 9.84998 37.2432 9.97064 37.1293C10.0934 37.0171 10.319 37.0697 10.4826 37.2466C10.6458 37.4256 10.6777 37.6606 10.5533 37.7741Z" fill="#c7cefc"/>
<path d="M11.5372 39.2357C11.3843 39.3437 11.1343 39.2424 10.9797 39.0167C10.8268 38.791 10.8268 38.5204 10.983 38.4119C11.138 38.3035 11.3843 38.401 11.5409 38.625C11.6934 38.8541 11.6934 39.1252 11.5372 39.2357Z" fill="#c7cefc"/>
<path d="M12.8851 40.6478C12.7483 40.8013 12.457 40.7601 12.2438 40.5508C12.0256 40.3461 11.9648 40.0557 12.102 39.9023C12.2405 39.7484 12.5334 39.7917 12.7483 39.9993C12.9648 40.2036 13.031 40.4961 12.8851 40.6478Z" fill="#c7cefc"/>
<path d="M14.7446 41.4679C14.6843 41.6667 14.4037 41.7571 14.1211 41.6726C13.8388 41.5856 13.6541 41.3528 13.7111 41.1519C13.7698 40.9518 14.0516 40.8577 14.3364 40.948C14.6182 41.0346 14.8033 41.2658 14.7446 41.4679Z" fill="#c7cefc"/>
<path d="M16.7868 41.6201C16.7938 41.8294 16.5541 42.0029 16.2575 42.0063C15.9591 42.0134 15.7178 41.8441 15.7145 41.6381C15.7145 41.4267 15.9488 41.2548 16.2471 41.2498C16.5438 41.2439 16.7868 41.412 16.7868 41.6201Z" fill="#c7cefc"/>
<path d="M18.6872 41.2909C18.7228 41.4952 18.5166 41.7049 18.2219 41.7604C17.9323 41.8146 17.6641 41.6885 17.6273 41.4859C17.5914 41.2766 17.8013 41.0669 18.0905 41.0127C18.3856 40.9606 18.6496 41.0833 18.6872 41.2909Z" fill="#c7cefc"/>
</svg>
