<svg width="50" height="50" viewBox="0 0 50 50" fill="none" xmlns="http://www.w3.org/2000/svg">
<path fill-rule="evenodd" clip-rule="evenodd" d="M25 50C38.8071 50 50 38.8071 50 25C50 11.1929 38.8071 0 25 0C11.1929 0 0 11.1929 0 25C0 38.8071 11.1929 50 25 50ZM14.0711 24.8237L25.6273 36.38L28.9556 33.0517L32.4912 36.5872L28.1022 40.9762C26.7354 42.343 24.5193 42.343 23.1525 40.9762L9.47487 27.2986C8.10804 25.9318 8.10804 23.7157 9.47487 22.3489L23.3488 8.47489C24.7157 7.10806 26.9318 7.10805 28.2986 8.47489L38.3542 18.5305C39.721 19.8973 39.721 22.1134 38.3542 23.4802L28.8691 32.9652L25.3336 29.4297L33.758 21.0053L25.8237 13.0711L14.0711 24.8237Z" fill="#c7cefc"/>
</svg>
